<svg xmlns="http://www.w3.org/2000/svg" width="1280" height="320" viewBox="0 0 1280 320" role="img" aria-labelledby="title desc">
  <title id="title">Rohit Agrawal — trustworthy AI systems</title>
  <desc id="desc">A dark navy profile header identifying Rohit Agrawal and his current direction in Forward-Deployed AI, AI Platform Engineering, and LLMOps and AI Reliability.</desc>
  <defs>
    <linearGradient id="background" x1="0" y1="0" x2="1" y2="1">
      <stop offset="0" stop-color="#071426"/>
      <stop offset="1" stop-color="#0B2140"/>
    </linearGradient>
    <linearGradient id="accent" x1="0" y1="0" x2="0" y2="1">
      <stop offset="0" stop-color="#63E6FF"/>
      <stop offset="1" stop-color="#8BAEFF"/>
    </linearGradient>
  </defs>

  <rect width="1280" height="320" rx="24" fill="url(#background)"/>
  <path d="M0 252 C210 208 310 310 520 260 S860 202 1040 250 S1190 292 1280 240" fill="none" stroke="#2A5A8F" stroke-width="2" opacity="0.5"/>
  <path d="M760 0 C850 90 955 64 1045 128 S1190 170 1280 104" fill="none" stroke="#2477A6" stroke-width="2" opacity="0.42"/>
  <circle cx="936" cy="76" r="5" fill="#63E6FF" opacity="0.8"/>
  <circle cx="1050" cy="130" r="5" fill="#8BAEFF" opacity="0.8"/>
  <circle cx="1164" cy="150" r="5" fill="#63E6FF" opacity="0.8"/>
  <path d="M936 76 L1050 130 L1164 150" fill="none" stroke="#8BAEFF" stroke-width="2" opacity="0.6"/>

  <rect x="54" y="45" width="6" height="232" rx="3" fill="url(#accent)"/>

  <g font-family="-apple-system, BlinkMacSystemFont, 'Segoe UI', sans-serif">
    <text x="86" y="83" fill="#F4F8FF" font-size="62" font-weight="700" letter-spacing="0.5">ROHIT AGRAWAL</text>
    <text x="88" y="132" fill="#63E6FF" font-size="44" font-weight="700" letter-spacing="2.2">CURRENT DIRECTION</text>
    <text x="86" y="183" fill="#F4F8FF" font-size="52" font-weight="650">FORWARD-DEPLOYED AI</text>
    <text x="86" y="239" fill="#F4F8FF" font-size="52" font-weight="650">AI PLATFORM ENGINEERING</text>
    <text x="86" y="295" fill="#F4F8FF" font-size="52" font-weight="650">LLMOPS / AI RELIABILITY</text>
  </g>
</svg>
